<?xml version="1.0" encoding="utf-8"?>
<!-- Generator: Adobe Illustrator 27.1.1, SVG Export Plug-In . SVG Version: 6.00 Build 0)  -->
<svg version="1.1" id="Lag_1" xmlns="http://www.w3.org/2000/svg" xmlns:xlink="http://www.w3.org/1999/xlink" x="0px" y="0px"
	 viewBox="0 0 45.3 57.5" style="enable-background:new 0 0 45.3 57.5;" xml:space="preserve">
<style type="text/css">
	.st0{fill:none;}
	.st1{fill:#802C28;}
</style>
<g>
	<rect x="9.9" y="11.8" class="st0" width="11.3" height="43.8"/>
	<path class="st1" d="M18.1,11.8v25.6c0,2.8-0.8,5.1-2.3,6.8c-1.5,1.7-3.5,2.6-6.1,2.6c-0.2,0-0.3,0-0.5,0c-0.2,0-0.3,0-0.5,0
		l-0.4-4.4c3,0,4.6-1.8,4.6-5.4V11.8H18.1z"/>
</g>
<g>
	<rect x="18.9" y="11.8" class="st0" width="26.3" height="37.4"/>
	<path class="st1" d="M22.4,45.9V11.8h10.8c3.3,0,5.9,0.9,7.8,2.6s2.9,4.1,2.9,7.1c0,2-0.5,3.7-1.5,5.3c-1,1.5-2.4,2.6-4.1,3.3
		c-1.7,0.7-4.2,1-7.4,1h-3.6v14.8H22.4z M32.4,16.1h-5.1v10.7h5.3c2,0,3.5-0.5,4.6-1.4c1.1-0.9,1.6-2.3,1.6-4
		C38.9,17.9,36.7,16.1,32.4,16.1z"/>
</g>
<g>
	<rect x="0" y="6.2" class="st0" width="26.3" height="43"/>
</g>
</svg>
